<?xml version="1.0" encoding="utf-8"?>
<!-- Generator: Adobe Illustrator 27.5.0, SVG Export Plug-In . SVG Version: 6.00 Build 0)  -->
<svg version="1.1" id="Layer_1" xmlns="http://www.w3.org/2000/svg" xmlns:xlink="http://www.w3.org/1999/xlink" x="0px" y="0px"
	 width="128px" height="128px" viewBox="0 0 128 128" style="enable-background:new 0 0 128 128;" xml:space="preserve">
<path class="fm_fill" d="M55.9,84.5l2.2-4.2l8.3,4.2h5.7l3.1-6h-19l-3.1,6H55.9z M110.6,69.1c0,8.5-6.9,15.5-15.5,15.5h-9.5l0.4-0.7
	l-10.4-5.3h19.5c5.2,0,9.5-4.3,9.5-9.5s-4.3-9.5-9.5-9.5c-0.5,0-1.1,0.1-1.7,0.2l-4.6,0.8l1.2-4.5c0.2-0.8,0.3-1.6,0.3-2.3
	c0-5-4.1-9.1-9.1-9.1c-2.1,0-4.1,0.7-5.7,2l-5.2,4.2l0.4-7c0-0.1,0-0.3,0-0.4c0-7.8-6.3-14.1-14.1-14.1s-14.1,6.3-14.1,14.1
	c0,1.5,0.2,3,0.7,4.5l1.7,5l-5.2-1.1c-1-0.2-2-0.3-2.9-0.3c-7.5,0-13.6,6.1-13.6,13.6s6.1,13.6,13.6,13.6h5.9l-1.1,2.2l0,0l-2,3.9
	h-2.8c-10.8,0-19.6-8.8-19.6-19.6c0-10.7,8.7-19.5,19.4-19.6c-0.1-0.7-0.1-1.4-0.1-2c0-11.1,9-20.1,20.1-20.1
	c9.7,0,17.8,6.9,19.7,16.1c1.6-0.6,3.3-0.8,5-0.8c8.3,0,15.1,6.8,15.1,15.1C104.3,54.3,110.6,60.9,110.6,69.1z M64.7,87.1l-5.3-2.7
	l-6.2,12.2l5.3,2.7L64.7,87.1z M51,114l-5.3-2.7l6.2-12.2l5.3,2.7L51,114z M75.7,97.3l-5.3-2.7l6.2-12.2l5.3,2.7L75.7,97.3z
	 M68.2,112.1l-5.3-2.7L69,97.2l5.3,2.7L68.2,112.1z M49.6,84.8l-5.3-2.7l6.2-12.2l5.3,2.7L49.6,84.8z M42.1,99.6l-5.3-2.7l6.2-12.2
	l5.3,2.7L42.1,99.6z"/>
</svg>
