<?xml version="1.0" encoding="utf-8"?>
<!-- Generator: Adobe Illustrator 27.5.0, SVG Export Plug-In . SVG Version: 6.00 Build 0)  -->
<svg version="1.1" id="Layer_1" xmlns="http://www.w3.org/2000/svg" xmlns:xlink="http://www.w3.org/1999/xlink" x="0px" y="0px"
	 width="128px" height="128px" viewBox="0 0 128 128" style="enable-background:new 0 0 128 128;" xml:space="preserve">
<path class="fm_fill" d="M50.9,84.5l3.1-6h19l-3.1,6h-5.7l-8.3-4.2l-2.2,4.2H50.9z M94.1,53.6c0-8.3-6.8-15.1-15.1-15.1
	c-1.7,0-3.4,0.3-5,0.8c-1.8-9.2-10-16.1-19.7-16.1c-11.1,0-20.1,9-20.1,20.1c0,0.7,0,1.4,0.1,2C23.7,45.5,15.1,54.3,15.1,65
	c0,10.8,8.8,19.6,19.6,19.6h2.8l2-3.9l0,0l1.1-2.2h-5.9c-7.5,0-13.6-6.1-13.6-13.6s6.1-13.6,13.6-13.6c1,0,1.9,0.1,2.9,0.3l5.2,1.1
	l-1.7-5c-0.5-1.5-0.7-3-0.7-4.5c0-7.8,6.3-14.1,14.1-14.1s14.1,6.3,14.1,14.1c0,0.1,0,0.3,0,0.4l-0.4,7l5.2-4.2c1.6-1.3,3.6-2,5.7-2
	c5,0,9.1,4.1,9.1,9.1c0,0.8-0.1,1.5-0.3,2.3l-1.2,4.5l4.6-0.8c0.6-0.1,1.1-0.2,1.7-0.2c5.2,0,9.5,4.3,9.5,9.5s-4.3,9.5-9.5,9.5H73.3
	l10.4,5.3l-0.4,0.7h9.5c8.5,0,15.5-6.9,15.5-15.5C108.4,60.9,102.1,54.3,94.1,53.6z M56.3,99.2l-5.3-2.7l6.2-12.2l5.3,2.7L56.3,99.2
	z M79.7,85.1l-5.3-2.7l-6.2,12.2l5.3,2.7L79.7,85.1z M53.6,72.7l-5.3-2.7L42,82.1l5.3,2.7L53.6,72.7z M46,87.4l-5.3-2.7l-6.2,12.2
	l5.3,2.7L46,87.4z M21.8,106.3l-5.4,8.7h10.9L21.8,106.3z M50.1,106.3l-5.4,8.7h10.9L50.1,106.3z M78.3,106.3l-5.4,8.7h10.9
	L78.3,106.3z M106.6,106.3l-5.4,8.7H112L106.6,106.3z"/>
</svg>
