<?xml version="1.0" encoding="utf-8"?>
<!-- Generator: Adobe Illustrator 27.5.0, SVG Export Plug-In . SVG Version: 6.00 Build 0)  -->
<svg version="1.1" id="Layer_1" xmlns="http://www.w3.org/2000/svg" xmlns:xlink="http://www.w3.org/1999/xlink" x="0px" y="0px"
	 width="128px" height="128px" viewBox="0 0 128 128" style="enable-background:new 0 0 128 128;" xml:space="preserve">
<path class="fm_fill" d="M115.2,53.2c0,5.4-4.1,9.9-9.5,10.4c-2-6-7.1-10.6-13.5-11.8c-1-8.6-8.3-15.3-17.1-15.3c-1.2,0-2.3,0.1-3.4,0.3
	C70,31,65.9,26.3,60.6,23.6c2.6-3.8,6.9-6.3,11.8-6.3c7.9,0,14.3,6.4,14.3,14.3c0,0.2,0,0.5,0,0.7c1.7-1.4,4-2.3,6.4-2.3
	c5.6,0,10.2,4.5,10.2,10.2c0,0.9-0.1,1.8-0.4,2.6c0.6-0.1,1.2-0.2,1.8-0.2C110.5,42.7,115.2,47.4,115.2,53.2z M49.8,84.5l2.2-4.2
	l8.3,4.2h5.7l3.1-6h-19l-3.1,6H49.8z M104.6,69.1c0,8.5-6.9,15.5-15.5,15.5h-9.5l0.4-0.7l-10.4-5.3h19.5c5.2,0,9.5-4.3,9.5-9.5
	s-4.3-9.5-9.5-9.5c-0.5,0-1.1,0.1-1.7,0.2l-4.6,0.8L84,56c0.2-0.8,0.3-1.6,0.3-2.3c0-5-4.1-9.1-9.1-9.1c-2.1,0-4.1,0.7-5.7,2
	l-5.2,4.2l0.4-7c0-0.1,0-0.3,0-0.4c0-7.8-6.3-14.1-14.1-14.1s-14.1,6.3-14.1,14.1c0,1.5,0.2,3,0.7,4.5l1.7,5l-5.2-1.1
	c-1-0.2-2-0.3-2.9-0.3c-7.5,0-13.6,6.1-13.6,13.6s6.1,13.6,13.6,13.6h5.9l-1.1,2.2l0,0l-2,3.9h-2.8C20,84.5,11.2,75.8,11.2,65
	c0-10.7,8.7-19.5,19.4-19.6c-0.1-0.7-0.1-1.4-0.1-2c0-11.1,9-20.1,20.1-20.1c9.7,0,17.8,6.9,19.7,16.1c1.6-0.6,3.3-0.8,5-0.8
	c8.3,0,15.1,6.8,15.1,15.1C98.3,54.3,104.6,60.9,104.6,69.1z M58.7,87.1l-5.3-2.7l-6.2,12.2l5.3,2.7L58.7,87.1z M44.9,114l-5.3-2.7
	l6.2-12.2l5.3,2.7L44.9,114z M69.7,97.3l-5.3-2.7l6.2-12.2l5.3,2.7L69.7,97.3z M62.1,112.1l-5.3-2.7L63,97.2l5.3,2.7L62.1,112.1z
	 M43.6,84.8l-5.3-2.7l6.2-12.2l5.3,2.7L43.6,84.8z M36,99.6l-5.3-2.7l6.2-12.2l5.3,2.7L36,99.6z"/>
</svg>
