<?xml version="1.0" encoding="utf-8"?>
<!-- Generator: Adobe Illustrator 27.5.0, SVG Export Plug-In . SVG Version: 6.00 Build 0)  -->
<svg version="1.1" id="Layer_1" xmlns="http://www.w3.org/2000/svg" xmlns:xlink="http://www.w3.org/1999/xlink" x="0px" y="0px"
	 width="128px" height="128px" viewBox="0 0 128 128" style="enable-background:new 0 0 128 128;" xml:space="preserve">
<path class="fm_fill" d="M53,85.3l-3.4,0.7l-0.9-0.5c0.1-0.2,0.1-0.4,0.1-0.7c0-0.3,0-0.5-0.1-0.7l1-0.5l3.4,0.7l0.3-1.2l-2.1-0.5
	l1.9-1.1l-0.6-1.1l-1.9,1.1l0.7-2L50,79.2l-1.1,3.3l-1,0.6c-0.3-0.3-0.7-0.5-1.2-0.6v-1.2l2.3-2.6l-0.9-0.8l-1.4,1.6v-2.2h-1.2v2.2
	l-1.4-1.6l-0.9,0.8l2.3,2.6v1.2c-0.4,0.1-0.8,0.3-1.1,0.6l-1.1-0.6l-1.1-3.3l-1.2,0.4l0.7,2l-1.9-1.1l-0.6,1.1l1.9,1.1l-2.1,0.5
	l0.3,1.2l3.4-0.7l1.1,0.6c-0.1,0.2-0.1,0.4-0.1,0.7c0,0.2,0,0.4,0.1,0.6l-1.1,0.6l-3.4-0.7l-0.3,1.2l2.1,0.5l-1.9,1.1l0.6,1.1
	l1.9-1.1l-0.7,2l1.2,0.4l1.1-3.3l1-0.6c0.3,0.3,0.7,0.6,1.1,0.7v1.1L43.2,91l0.9,0.8l1.4-1.6v2.2h1.2v-2.2l1.4,1.6l0.9-0.8l-2.3-2.6
	v-1.1c0.5-0.1,0.9-0.3,1.2-0.7l0.9,0.5l1.1,3.3l1.2-0.4l-0.7-2l1.9,1.1l0.6-1.1L51.1,87l2.1-0.5L53,85.3z M45,84.9
	c0-0.7,0.6-1.2,1.2-1.2s1.2,0.6,1.2,1.2c0,0.7-0.6,1.2-1.2,1.2S45,85.6,45,84.9z M82.5,88.8l-3.4,0.7L78.1,89
	c0.1-0.2,0.1-0.4,0.1-0.7c0-0.3,0-0.5-0.1-0.7l1-0.5l3.4,0.7l0.3-1.2l-2.1-0.5l1.9-1.1L82,84l-1.9,1.1l0.7-2l-1.2-0.4L78.5,86
	l-1,0.6c-0.3-0.3-0.7-0.5-1.2-0.6v-1.2l2.3-2.6l-0.9-0.8l-1.4,1.6v-2.2h-1.2V83l-1.4-1.6l-0.9,0.8l2.3,2.6V86
	c-0.4,0.1-0.8,0.3-1.1,0.6L73,86l-1.1-3.3l-1.2,0.4l0.7,2L69.5,84l-0.6,1.1l1.9,1.1l-2.1,0.5l0.3,1.2l3.4-0.7l1.1,0.6
	c-0.1,0.2-0.1,0.4-0.1,0.7c0,0.2,0,0.4,0.1,0.6l-1.1,0.6l-3.4-0.7L68.7,90l2.1,0.5l-1.9,1.1l0.6,1.1l1.9-1.1l-0.7,2l1.2,0.4l1.1-3.3
	l1-0.6c0.3,0.3,0.7,0.6,1.1,0.7v1.1l-2.3,2.6l0.9,0.8l1.4-1.6v2.2h1.2v-2.2l1.4,1.6l0.9-0.8l-2.3-2.6v-1.1c0.5-0.1,0.9-0.3,1.2-0.7
	l0.9,0.5l1.1,3.3l1.2-0.4l-0.7-2l1.9,1.1l0.6-1.1l-1.9-1.1l2.1-0.5L82.5,88.8z M74.5,88.3c0-0.7,0.6-1.2,1.2-1.2s1.2,0.6,1.2,1.2
	c0,0.7-0.6,1.2-1.2,1.2S74.5,89,74.5,88.3z M45.6,106.7l-3.4,0.7l-0.9-0.5c0.1-0.2,0.1-0.4,0.1-0.7c0-0.3,0-0.5-0.1-0.7l1-0.5
	l3.4,0.7l0.3-1.2l-2.1-0.5l1.9-1.1l-0.6-1.1l-1.9,1.1l0.7-2l-1.2-0.4l-1.1,3.3l-1,0.6c-0.3-0.3-0.7-0.5-1.2-0.6v-1.2l2.3-2.6
	l-0.9-0.8l-1.4,1.6v-2.2h-1.2v2.2l-1.4-1.6l-0.9,0.8l2.3,2.6v1.2c-0.4,0.1-0.8,0.3-1.1,0.6l-1.1-0.6l-1.1-3.3l-1.2,0.4l0.7,2
	l-1.9-1.1l-0.6,1.1l1.9,1.1l-2.1,0.5l0.3,1.2l3.4-0.7l1.1,0.6c-0.1,0.2-0.1,0.4-0.1,0.7c0,0.2,0,0.4,0.1,0.6l-1.1,0.6l-3.4-0.7
	l-0.3,1.2l2.1,0.5l-1.9,1.1l0.6,1.1l1.9-1.1l-0.7,2l1.2,0.4l1.1-3.3l1-0.6c0.3,0.3,0.7,0.6,1.1,0.7v1.1l-2.3,2.6l0.9,0.8l1.4-1.6
	v2.2h1.2v-2.2l1.4,1.6l0.9-0.8l-2.3-2.6v-1.1c0.5-0.1,0.9-0.3,1.2-0.7l0.9,0.5l1.1,3.3l1.2-0.4l-0.7-2l1.9,1.1l0.6-1.1l-1.9-1.1
	l2.1-0.5L45.6,106.7z M37.6,106.2c0-0.7,0.6-1.2,1.2-1.2s1.2,0.6,1.2,1.2c0,0.7-0.6,1.2-1.2,1.2S37.6,106.9,37.6,106.2z M75.1,110.1
	l-3.4,0.7l-0.9-0.5c0.1-0.2,0.1-0.4,0.1-0.7c0-0.3,0-0.5-0.1-0.7l1-0.5l3.4,0.7l0.3-1.2l-2.1-0.5l1.9-1.1l-0.6-1.1l-1.9,1.1l0.7-2
	l-1.2-0.4l-1.1,3.3l-1,0.6c-0.3-0.3-0.7-0.5-1.2-0.6v-1.2l2.3-2.6l-0.9-0.8l-1.4,1.6v-2.2h-1.2v2.2l-1.4-1.6l-0.9,0.8l2.3,2.6v1.2
	c-0.4,0.1-0.8,0.3-1.1,0.6l-1.1-0.6l-1.1-3.3l-1.2,0.4l0.7,2l-1.9-1.1l-0.6,1.1l1.9,1.1l-2.1,0.5l0.3,1.2l3.4-0.7L66,109
	c-0.1,0.2-0.1,0.4-0.1,0.7c0,0.2,0,0.4,0.1,0.6l-1.1,0.6l-3.4-0.7l-0.3,1.2l2.1,0.5l-1.9,1.1l0.6,1.1l1.9-1.1l-0.7,2l1.2,0.4
	l1.1-3.3l1-0.6c0.3,0.3,0.7,0.6,1.1,0.7v1.1l-2.3,2.6l0.9,0.8l1.4-1.6v2.2h1.2V115l1.4,1.6l0.9-0.8l-2.3-2.6v-1.1
	c0.5-0.1,0.9-0.3,1.2-0.7l0.9,0.5l1.1,3.3l1.2-0.4l-0.7-2l1.9,1.1l0.6-1.1l-1.9-1.1l2.1-0.5L75.1,110.1z M67.2,109.7
	c0-0.7,0.6-1.2,1.2-1.2c0.7,0,1.2,0.6,1.2,1.2c0,0.7-0.6,1.2-1.2,1.2C67.7,110.9,67.2,110.4,67.2,109.7z M104.6,69.1
	c0,8.5-6.9,15.5-15.5,15.5h-4.8c-1.4-3.3-4.7-5.5-8.5-5.5c-3.8,0-7,2.3-8.5,5.5H55.6c-0.1-2.3-1.1-4.4-2.6-6h36
	c5.2,0,9.5-4.3,9.5-9.5s-4.3-9.5-9.5-9.5c-0.5,0-1.1,0.1-1.7,0.2l-4.6,0.8L84,56c0.2-0.8,0.3-1.6,0.3-2.3c0-5-4.1-9.1-9.1-9.1
	c-2.1,0-4.1,0.7-5.7,2l-5.2,4.2l0.4-7c0-0.1,0-0.3,0-0.4c0-7.8-6.3-14.1-14.1-14.1s-14.1,6.3-14.1,14.1c0,1.5,0.2,3,0.7,4.5l1.7,5
	l-5.2-1.1c-1-0.2-2-0.3-2.9-0.3c-7.5,0-13.6,6.1-13.6,13.6s6.1,13.6,13.6,13.6h8.8c-1.5,1.6-2.5,3.7-2.6,6h-6.2
	C20,84.5,11.2,75.8,11.2,65c0-10.7,8.7-19.5,19.4-19.6c-0.1-0.7-0.1-1.4-0.1-2c0-11.1,9-20.1,20.1-20.1c9.7,0,17.8,6.9,19.7,16.1
	c1.6-0.6,3.3-0.8,5-0.8c8.3,0,15.1,6.8,15.1,15.1C98.3,54.3,104.6,60.9,104.6,69.1z M115.3,53.2c0,5.4-4.2,9.9-9.5,10.4
	c-2-6-7.1-10.7-13.5-11.9c-1-8.6-8.3-15.3-17.1-15.3c-1.2,0-2.3,0.1-3.4,0.3C70,31,65.9,26.3,60.7,23.7c2.6-3.8,6.9-6.3,11.8-6.3
	c7.9,0,14.3,6.4,14.3,14.3c0,0.2,0,0.5,0,0.7c1.7-1.4,4-2.3,6.4-2.3c5.6,0,10.2,4.5,10.2,10.2c0,0.9-0.1,1.8-0.4,2.6
	c0.6-0.1,1.2-0.2,1.8-0.2C110.6,42.8,115.3,47.4,115.3,53.2z"/>
</svg>
