<?xml version="1.0" encoding="utf-8"?>
<!-- Generator: Adobe Illustrator 27.5.0, SVG Export Plug-In . SVG Version: 6.00 Build 0)  -->
<svg version="1.1" id="Layer_1" xmlns="http://www.w3.org/2000/svg" xmlns:xlink="http://www.w3.org/1999/xlink" x="0px" y="0px"
	 width="128px" height="128px" viewBox="0 0 128 128" style="enable-background:new 0 0 128 128;" xml:space="preserve">
<path class="fm_fill" d="M113,48.2l-6.9,1.5l6.4,3.7l-2,3.5l-6.4-3.7l1.1,3.3c-1.6-1.5-3.4-2.8-5.5-3.7l-0.9-2.7l-3.1-1.8
	c-0.1,0.1-0.2,0.1-0.2,0.2c-0.5-1.5-1.1-2.8-1.9-4.1c0.3-0.5,0.4-1.1,0.4-1.8c0-2.3-1.8-4.1-4.1-4.1c-0.6,0-1.2,0.2-1.8,0.4
	c-2.6-1.7-5.8-2.6-9.1-2.6c-1.2,0-2.3,0.1-3.4,0.3c-0.7-2.4-1.9-4.6-3.3-6.5l3,1.7L73,25.3l3.8-1.3l3.6,11l3.6,2.1
	c1-1,2.2-1.8,3.6-2.1v-4l-7.8-8.6l3-2.7l4.8,5.3v-7.4h4v7.4l4.7-5.3l3,2.7l-7.7,8.6v3.9c1.5,0.3,2.8,1.1,3.8,2.1l3.3-1.9l3.6-11
	l3.8,1.3l-2.2,6.7l6.4-3.7l2,3.5l-6.4,3.7L113,37l-0.9,3.9l-11.3-2.4l-3.2,1.8c0.2,0.8,0.4,1.6,0.4,2.4c0,0.8-0.1,1.5-0.3,2.2
	l3.1,1.8l11.3-2.4L113,48.2z M53.7,84.5l2.2-4.2l8.3,4.2h5.7l3.1-6h-19l-3.1,6H53.7z M108.4,69.1c0,8.5-6.9,15.5-15.5,15.5h-9.5
	l0.4-0.7l-10.4-5.3h19.5c5.2,0,9.5-4.3,9.5-9.5s-4.3-9.5-9.5-9.5c-0.5,0-1.1,0.1-1.7,0.2l-4.6,0.8l1.2-4.5c0.2-0.8,0.3-1.6,0.3-2.3
	c0-5-4.1-9.1-9.1-9.1c-2.1,0-4.1,0.7-5.7,2l-5.2,4.2l0.4-7c0-0.1,0-0.3,0-0.4c0-7.8-6.3-14.1-14.1-14.1s-14.1,6.3-14.1,14.1
	c0,1.5,0.2,3,0.7,4.5l1.7,5l-5.2-1.1c-1-0.2-2-0.3-2.9-0.3c-7.5,0-13.6,6.1-13.6,13.6s6.1,13.6,13.6,13.6h5.9l-1.1,2.2l0,0l-2,3.9
	h-2.8c-10.8,0-19.6-8.8-19.6-19.6c0-10.7,8.7-19.5,19.4-19.6c-0.1-0.7-0.1-1.4-0.1-2c0-11.1,9-20.1,20.1-20.1
	c9.7,0,17.8,6.9,19.7,16.1c1.6-0.6,3.3-0.8,5-0.8c8.3,0,15.1,6.8,15.1,15.1C102.1,54.3,108.4,60.9,108.4,69.1z M62.5,87.1l-5.3-2.7
	l-6.2,12.2l5.3,2.7L62.5,87.1z M48.7,114l-5.3-2.7l6.2-12.2l5.3,2.7L48.7,114z M73.5,97.3l-5.3-2.7l6.2-12.2l5.3,2.7L73.5,97.3z
	 M65.9,112.1l-5.3-2.7l6.2-12.2l5.3,2.7L65.9,112.1z M47.4,84.8L42,82.1l6.2-12.2l5.3,2.7L47.4,84.8z M39.8,99.6l-5.3-2.7l6.2-12.2
	l5.3,2.7L39.8,99.6z"/>
</svg>
