<?xml version="1.0" encoding="utf-8"?>
<!-- Generator: Adobe Illustrator 27.5.0, SVG Export Plug-In . SVG Version: 6.00 Build 0)  -->
<svg version="1.1" id="Layer_1" xmlns="http://www.w3.org/2000/svg" xmlns:xlink="http://www.w3.org/1999/xlink" x="0px" y="0px"
	 width="128px" height="128px" viewBox="0 0 128 128" style="enable-background:new 0 0 128 128;" xml:space="preserve">
<path class="fm_fill" d="M67.2,36.8c5.8-7.4,14.9-12.2,25-12.2c17.6,0,31.9,14.3,31.9,31.9c0,8.5-3.3,16.2-8.7,21.9
	c-3-5.6-8.5-9.7-15.1-10.6C99.6,57.4,91,49.2,80.4,49.2c-1.7,0-3.4,0.2-5,0.6C74,44.7,71.1,40.2,67.2,36.8z M115.7,88
	c0-9.8-7.8-17.8-17.5-18.3c0-0.2,0-0.4,0-0.6c0-9.8-8-17.8-17.8-17.8c-2.3,0-4.5,0.4-6.6,1.3c-1.9-11.3-11.8-20-23.6-20
	c-13.2,0-23.9,10.7-23.9,23.9c0,1.1,0.1,2.1,0.2,3.2C13.4,59.4,2.7,70,2.7,83c0,12.9,10.5,23.3,23.3,23.3h71.4
	C107.5,106.3,115.7,98.1,115.7,88z M29.8,66.1l5.2,1.1l-1.7-5c-0.6-1.9-0.9-3.8-0.9-5.7c0-9.9,8-17.9,17.9-17.9s17.9,8,17.9,17.9
	c0,0.2,0,0.3,0,0.5l-0.4,7.1L73,60c2.1-1.7,4.7-2.6,7.4-2.6c6.5,0,11.8,5.3,11.8,11.8c0,1-0.1,2-0.4,3l-1.2,4.6l4.6-0.8
	c0.8-0.1,1.5-0.2,2.2-0.2c6.8,0,12.3,5.5,12.3,12.3c0,6.8-5.5,12.3-12.3,12.3H26c-9.5,0-17.3-7.8-17.3-17.3S16.5,65.7,26,65.7
	C27.2,65.7,28.5,65.9,29.8,66.1z"/>
</svg>
