<?xml version="1.0" encoding="utf-8"?>
<!-- Generator: Adobe Illustrator 27.5.0, SVG Export Plug-In . SVG Version: 6.00 Build 0)  -->
<svg version="1.1" id="Layer_1" xmlns="http://www.w3.org/2000/svg" xmlns:xlink="http://www.w3.org/1999/xlink" x="0px" y="0px"
	 width="128px" height="128px" viewBox="0 0 128 128" style="enable-background:new 0 0 128 128;" xml:space="preserve">
<path class="fm_fill" d="M59,85.3l-3.4,0.7l-0.9-0.5c0.1-0.2,0.1-0.4,0.1-0.7c0-0.3,0-0.5-0.1-0.7l1-0.5l3.4,0.7l0.3-1.2l-2.1-0.5
	l1.9-1.1l-0.6-1.1l-1.9,1.1l0.7-2l-1.2-0.4L55,82.5l-1,0.6c-0.3-0.3-0.7-0.5-1.2-0.6v-1.2l2.3-2.6l-0.9-0.8l-1.4,1.6v-2.2h-1.2v2.2
	l-1.4-1.6l-0.9,0.8l2.3,2.6v1.2c-0.4,0.1-0.8,0.3-1.1,0.6l-1.1-0.6l-1.1-3.3l-1.2,0.4l0.7,2L46,80.5l-0.6,1.1l1.9,1.1l-2.1,0.5
	l0.3,1.2l3.4-0.7l1.1,0.6c-0.1,0.2-0.1,0.4-0.1,0.7c0,0.2,0,0.4,0.1,0.6l-1.1,0.6l-3.4-0.7l-0.3,1.2l2.1,0.5l-1.9,1.1l0.6,1.1
	l1.9-1.1l-0.7,2l1.2,0.4l1.1-3.3l1-0.6c0.3,0.3,0.7,0.6,1.1,0.7v1.1L49.3,91l0.9,0.8l1.4-1.6v2.2h1.2v-2.2l1.4,1.6l0.9-0.8l-2.3-2.6
	v-1.1c0.5-0.1,0.9-0.3,1.2-0.7l0.9,0.5l1.1,3.3l1.2-0.4l-0.7-2l1.9,1.1l0.6-1.1L57.2,87l2.1-0.5L59,85.3z M51.1,84.9
	c0-0.7,0.6-1.2,1.2-1.2c0.7,0,1.2,0.6,1.2,1.2c0,0.7-0.6,1.2-1.2,1.2C51.6,86.1,51.1,85.6,51.1,84.9z M88.6,88.8l-3.4,0.7L84.2,89
	c0.1-0.2,0.1-0.4,0.1-0.7c0-0.3,0-0.5-0.1-0.7l1-0.5l3.4,0.7l0.3-1.2l-2.1-0.5l1.9-1.1L88,84l-1.9,1.1l0.7-2l-1.2-0.4L84.5,86
	l-1,0.6c-0.3-0.3-0.7-0.5-1.2-0.6v-1.2l2.3-2.6l-0.9-0.8l-1.4,1.6v-2.2h-1.2V83l-1.4-1.6l-0.9,0.8l2.3,2.6V86
	c-0.4,0.1-0.8,0.3-1.1,0.6L79,86l-1.1-3.3l-1.2,0.4l0.7,2L75.5,84l-0.6,1.1l1.9,1.1l-2.1,0.5l0.3,1.2l3.4-0.7l1.1,0.6
	c-0.1,0.2-0.1,0.4-0.1,0.7c0,0.2,0,0.4,0.1,0.6l-1.1,0.6L75,88.8L74.8,90l2.1,0.5l-1.9,1.1l0.6,1.1l1.9-1.1l-0.7,2l1.2,0.4l1.1-3.3
	l1-0.6c0.3,0.3,0.7,0.6,1.1,0.7v1.1l-2.3,2.6l0.9,0.8l1.4-1.6v2.2h1.2v-2.2l1.4,1.6l0.9-0.8l-2.3-2.6v-1.1c0.5-0.1,0.9-0.3,1.2-0.7
	l0.9,0.5l1.1,3.3l1.2-0.4l-0.7-2l1.9,1.1l0.6-1.1l-1.9-1.1l2.1-0.5L88.6,88.8z M80.6,88.3c0-0.7,0.6-1.2,1.2-1.2
	c0.7,0,1.2,0.6,1.2,1.2c0,0.7-0.6,1.2-1.2,1.2C81.2,89.6,80.6,89,80.6,88.3z M51.6,106.7l-3.4,0.7l-0.9-0.5c0.1-0.2,0.1-0.4,0.1-0.7
	c0-0.3,0-0.5-0.1-0.7l1-0.5l3.4,0.7l0.3-1.2l-2.1-0.5l1.9-1.1l-0.6-1.1l-1.9,1.1l0.7-2l-1.2-0.4l-1.1,3.3l-1,0.6
	c-0.3-0.3-0.7-0.5-1.2-0.6v-1.2l2.3-2.6l-0.9-0.8l-1.4,1.6v-2.2h-1.2v2.2l-1.4-1.6l-0.9,0.8l2.3,2.6v1.2c-0.4,0.1-0.8,0.3-1.1,0.6
	l-1.1-0.6l-1.1-3.3l-1.2,0.4l0.7,2l-1.9-1.1l-0.6,1.1l1.9,1.1l-2.1,0.5l0.3,1.2l3.4-0.7l1.1,0.6c-0.1,0.2-0.1,0.4-0.1,0.7
	c0,0.2,0,0.4,0.1,0.6l-1.1,0.6l-3.4-0.7l-0.3,1.2l2.1,0.5l-1.9,1.1l0.6,1.1l1.9-1.1l-0.7,2l1.2,0.4l1.1-3.3l1-0.6
	c0.3,0.3,0.7,0.6,1.1,0.7v1.1l-2.3,2.6l0.9,0.8l1.4-1.6v2.2h1.2v-2.2l1.4,1.6l0.9-0.8l-2.3-2.6v-1.1c0.5-0.1,0.9-0.3,1.2-0.7
	l0.9,0.5l1.1,3.3l1.2-0.4l-0.7-2l1.9,1.1l0.6-1.1l-1.9-1.1l2.1-0.5L51.6,106.7z M43.7,106.2c0-0.7,0.6-1.2,1.2-1.2s1.2,0.6,1.2,1.2
	c0,0.7-0.6,1.2-1.2,1.2S43.7,106.9,43.7,106.2z M81.2,110.1l-3.4,0.7l-0.9-0.5c0.1-0.2,0.1-0.4,0.1-0.7c0-0.3,0-0.5-0.1-0.7l1-0.5
	l3.4,0.7l0.3-1.2l-2.1-0.5l1.9-1.1l-0.6-1.1l-1.9,1.1l0.7-2l-1.2-0.4l-1.1,3.3l-1,0.6c-0.3-0.3-0.7-0.5-1.2-0.6v-1.2l2.3-2.6
	l-0.9-0.8l-1.4,1.6v-2.2h-1.2v2.2l-1.4-1.6l-0.9,0.8l2.3,2.6v1.2c-0.4,0.1-0.8,0.3-1.1,0.6l-1.1-0.6l-1.1-3.3l-1.2,0.4l0.7,2
	l-1.9-1.1l-0.6,1.1l1.9,1.1l-2.1,0.5l0.3,1.2l3.4-0.7l1.1,0.6c-0.1,0.2-0.1,0.4-0.1,0.7c0,0.2,0,0.4,0.1,0.6l-1.1,0.6l-3.4-0.7
	l-0.3,1.2l2.1,0.5l-1.9,1.1l0.6,1.1l1.9-1.1l-0.7,2l1.2,0.4l1.1-3.3l1-0.6c0.3,0.3,0.7,0.6,1.1,0.7v1.1l-2.3,2.6l0.9,0.8l1.4-1.6
	v2.2H75V115l1.4,1.6l0.9-0.8l-2.3-2.6v-1.1c0.5-0.1,0.9-0.3,1.2-0.7l0.9,0.5l1.1,3.3l1.2-0.4l-0.7-2l1.9,1.1l0.6-1.1l-1.9-1.1
	l2.1-0.5L81.2,110.1z M73.2,109.7c0-0.7,0.6-1.2,1.2-1.2c0.7,0,1.2,0.6,1.2,1.2c0,0.7-0.6,1.2-1.2,1.2
	C73.8,110.9,73.2,110.4,73.2,109.7z M110.6,69.1c0,8.5-6.9,15.5-15.5,15.5h-4.8c-1.4-3.3-4.7-5.5-8.5-5.5c-3.8,0-7,2.3-8.5,5.5H61.7
	c-0.1-2.3-1.1-4.4-2.6-6h36c5.2,0,9.5-4.3,9.5-9.5s-4.3-9.5-9.5-9.5c-0.5,0-1.1,0.1-1.7,0.2l-4.6,0.8l1.2-4.5
	c0.2-0.8,0.3-1.6,0.3-2.3c0-5-4.1-9.1-9.1-9.1c-2.1,0-4.1,0.7-5.7,2l-5.2,4.2l0.4-7c0-0.1,0-0.3,0-0.4c0-7.8-6.3-14.1-14.1-14.1
	s-14.1,6.3-14.1,14.1c0,1.5,0.2,3,0.7,4.5l1.7,5l-5.2-1.1c-1-0.2-2-0.3-2.9-0.3c-7.5,0-13.6,6.1-13.6,13.6s6.1,13.6,13.6,13.6h8.8
	c-1.5,1.6-2.5,3.7-2.6,6h-6.2c-10.8,0-19.6-8.8-19.6-19.6c0-10.7,8.7-19.5,19.4-19.6c-0.1-0.7-0.1-1.4-0.1-2
	c0-11.1,9-20.1,20.1-20.1c9.7,0,17.8,6.9,19.7,16.1c1.6-0.6,3.3-0.8,5-0.8c8.3,0,15.1,6.8,15.1,15.1
	C104.3,54.3,110.6,60.9,110.6,69.1z"/>
</svg>
