<?xml version="1.0" encoding="utf-8"?>
<!-- Generator: Adobe Illustrator 27.5.0, SVG Export Plug-In . SVG Version: 6.00 Build 0)  -->
<svg version="1.1" id="Layer_1" xmlns="http://www.w3.org/2000/svg" xmlns:xlink="http://www.w3.org/1999/xlink" x="0px" y="0px"
	 width="128px" height="128px" viewBox="0 0 128 128" style="enable-background:new 0 0 128 128;" xml:space="preserve">
<path class="fm_fill" d="M97.4,66.3L80.5,70l-4.6-2.7c0.3-1,0.5-2.1,0.5-3.2c0-1.2-0.2-2.4-0.5-3.5l4.7-2.7l16.8,3.6l1.3-5.9l-10.3-2.2
	l9.5-5.4l-3-5.2l-9.5,5.4l3.3-10L83,36.3l-5.4,16.3l-4.9,2.8c-1.6-1.5-3.5-2.6-5.7-3.1v-5.9l11.5-12.8l-4.5-4l-7,7.8V26.6h-6v11
	l-7.1-7.8l-4.5,4L61,46.5v6c-2.1,0.6-3.9,1.7-5.3,3.2l-5.3-3L45,36.3l-5.7,1.9l3.3,10l-9.5-5.4l-3,5.2l9.5,5.4l-10.3,2.2l1.3,5.9
	l16.8-3.6l5.3,3c-0.3,1-0.4,2.1-0.4,3.2c0,1,0.1,2,0.4,2.9l-5.2,3l-16.8-3.6l-1.3,5.9l10.3,2.2l-9.5,5.4l3,5.2l9.5-5.4l-3.3,10
	l5.7,1.9l5.4-16.3l5.1-2.9c1.5,1.6,3.4,2.8,5.5,3.4v5.7L49.5,94.1l4.5,4l7-7.8v10.9h6v-11l7.1,7.8l4.5-4L66.9,81.3v-5.4
	c2.3-0.5,4.4-1.7,6-3.3l4.7,2.7L83,91.5l5.7-1.9l-3.3-10l9.5,5.4l3-5.2l-9.5-5.4l10.3-2.2L97.4,66.3z M58.2,64.1
	c0-3.4,2.7-6.1,6.1-6.1s6.1,2.7,6.1,6.1c0,3.4-2.7,6.1-6.1,6.1S58.2,67.4,58.2,64.1z"/>
</svg>
