<?xml version="1.0" encoding="utf-8"?>
<!-- Generator: Adobe Illustrator 27.5.0, SVG Export Plug-In . SVG Version: 6.00 Build 0)  -->
<svg version="1.1" id="Layer_1" xmlns="http://www.w3.org/2000/svg" xmlns:xlink="http://www.w3.org/1999/xlink" x="0px" y="0px"
	 width="128px" height="128px" viewBox="0 0 128 128" style="enable-background:new 0 0 128 128;" xml:space="preserve">
<path class="fm_fill" d="M114.2,53.2c0,5.4-4.2,9.9-9.5,10.4c-2-6-7.1-10.7-13.5-11.9c-1-8.6-8.3-15.3-17.1-15.3c-1.2,0-2.3,0.1-3.4,0.3
	c-1.8-5.8-5.9-10.4-11.1-13.1c2.6-3.8,6.9-6.3,11.8-6.3c7.9,0,14.3,6.4,14.3,14.3c0,0.2,0,0.5,0,0.7c1.7-1.4,4-2.3,6.4-2.3
	c5.6,0,10.2,4.5,10.2,10.2c0,0.9-0.1,1.8-0.4,2.6c0.6-0.1,1.2-0.2,1.8-0.2C109.5,42.7,114.2,47.4,114.2,53.2z M42.3,71.2L29.8,94.6
	h9l-8.5,19l25.1-27.5H44.6l9.7-14.9H42.3z M89.2,53.6c0-8.3-6.8-15.1-15.1-15.1c-1.7,0-3.4,0.3-4.9,0.8c-1.8-9.2-10-16.1-19.7-16.1
	c-11.1,0-20.1,9-20.1,20.1c0,0.7,0,1.4,0.1,2c-10.7,0.1-19.3,8.8-19.3,19.6c0,10.8,8.8,19.6,19.6,19.6h2.1l3.2-6h-5.3
	c-7.5,0-13.6-6.1-13.6-13.6s6.1-13.6,13.6-13.6c1,0,1.9,0.1,2.9,0.3l5.2,1.1l-1.7-5c-0.5-1.5-0.7-3-0.7-4.5
	c0-7.8,6.3-14.1,14.1-14.1s14.1,6.3,14.1,14.1c0,0.1,0,0.3,0,0.4l-0.4,7l5.2-4.2c1.6-1.3,3.6-2,5.7-2c5,0,9.1,4.1,9.1,9.1
	c0,0.8-0.1,1.5-0.3,2.3l-1.2,4.5l4.6-0.8c0.6-0.1,1.1-0.2,1.7-0.2c5.2,0,9.5,4.2,9.5,9.5c0,3.9-2.4,7.3-5.8,8.7c1.2,1.3,2,3,2,4.9
	c0,0.3,0,0.5,0,0.7c5.8-2.3,9.9-7.9,9.9-14.4C103.4,60.9,97.2,54.2,89.2,53.6z M72.7,78.5c2.1,1.2,3.6,3.4,3.7,6h3.4
	c-0.2-0.6-0.2-1.2-0.2-1.8c0-1.6,0.5-3,1.4-4.2H72.7z M50.1,83.1h12.2c0.5-2,1.8-3.7,3.5-4.7H53.2L50.1,83.1z M86.5,77.7
	c-2.7,0-5,2.2-5,5c0,2.7,2.2,5,5,5s5-2.2,5-5C91.5,79.9,89.3,77.7,86.5,77.7z M79.7,91c-2.7,0-5,2.2-5,5s2.2,5,5,5c2.7,0,5-2.2,5-5
	S82.4,91,79.7,91z M72.8,104.4c-2.7,0-5,2.2-5,5s2.2,5,5,5c2.7,0,5-2.2,5-5S75.6,104.4,72.8,104.4z M69.3,79.7c-2.7,0-5,2.2-5,5
	s2.2,5,5,5s5-2.2,5-5S72,79.7,69.3,79.7z M62.4,93c-2.7,0-5,2.2-5,5s2.2,5,5,5s5-2.2,5-5S65.2,93,62.4,93z M55.6,106.5
	c-2.7,0-5,2.2-5,5c0,2.7,2.2,5,5,5s5-2.2,5-5C60.5,108.7,58.3,106.5,55.6,106.5z"/>
</svg>
