<?xml version="1.0" encoding="utf-8"?>
<!-- Generator: Adobe Illustrator 27.5.0, SVG Export Plug-In . SVG Version: 6.00 Build 0)  -->
<svg version="1.1" id="Layer_1" xmlns="http://www.w3.org/2000/svg" xmlns:xlink="http://www.w3.org/1999/xlink" x="0px" y="0px"
	 width="128px" height="128px" viewBox="0 0 128 128" style="enable-background:new 0 0 128 128;" xml:space="preserve">
<path class="fm_fill" d="M64,103.1c-21.6,0-39.1-17.6-39.1-39.1S42.4,24.9,64,24.9c21.6,0,39.1,17.6,39.1,39.1S85.6,103.1,64,103.1z
	 M64,30.9c-18.3,0-33.1,14.9-33.1,33.1S45.7,97.1,64,97.1S97.1,82.3,97.1,64S82.3,30.9,64,30.9z M67,5.4h-6v15.1h6V5.4z M67,107.5
	h-6v15.1h6V107.5z M50.1,22.7l-3.5-8.3l-5.5,2.3l3.5,8.3L50.1,22.7z M86.9,111.4l-3.4-8.3l-5.5,2.3l3.4,8.3L86.9,111.4z M86.9,16.6
	l-5.5-2.3l-3.5,8.3l5.5,2.3L86.9,16.6z M50.1,105.3l-5.5-2.3l-3.4,8.3l5.5,2.3L50.1,105.3z M113.7,46.7l-2.3-5.5l-8.3,3.5l2.3,5.5
	L113.7,46.7z M24.9,83.4l-2.3-5.5l-8.3,3.4l2.3,5.5L24.9,83.4z M113.7,81.3l-8.3-3.5l-2.3,5.5l8.3,3.5L113.7,81.3z M24.9,44.6
	l-8.3-3.4l-2.3,5.5l8.3,3.4L24.9,44.6z M20.5,61H5.4v6h15.1V61z M122.6,61h-15.1v6h15.1V61z M35.4,96.9l-4.2-4.2l-10.7,10.7l4.2,4.2
	L35.4,96.9z M107.5,24.7l-4.2-4.2L92.6,31.1l4.2,4.2L107.5,24.7z M107.5,103.3L96.9,92.6l-4.2,4.2l10.7,10.7L107.5,103.3z
	 M35.4,31.1L24.7,20.5l-4.2,4.2l10.7,10.7L35.4,31.1z"/>
</svg>
